<?xml version="1.0" encoding="UTF-8" standalone="no"?>
<!DOCTYPE svg PUBLIC "-//W3C//DTD SVG 1.1//EN" "http://www.w3.org/Graphics/SVG/1.1/DTD/svg11.dtd">
<svg width="100%" height="100%" viewBox="0 0 900 300" version="1.1" xmlns="http://www.w3.org/2000/svg" xmlns:xlink="http://www.w3.org/1999/xlink" xml:space="preserve" xmlns:serif="http://www.serif.com/" style="fill-rule:evenodd;clip-rule:evenodd;stroke-linejoin:round;stroke-miterlimit:2;">
    <g transform="matrix(3.24808,0,0,1,-22.9365,0)">
        <path d="M279.88,35.132C279.88,24.498 277.222,15.865 273.949,15.865L16.134,15.865C12.861,15.865 10.203,24.498 10.203,35.132L10.203,266.276C10.203,276.91 12.861,285.543 16.134,285.543L273.949,285.543C277.222,285.543 279.88,276.91 279.88,266.276L279.88,35.132Z" style="fill:url(#_Radial1);"/>
    </g>
    <g transform="matrix(1.09512,0,0,1.09512,-37.12,-100.499)">
        <g transform="matrix(77.018,0,0,77.018,278.475,185.448)">
            <path d="M0.097,-0.48C0.14,-0.503 0.199,-0.515 0.274,-0.515C0.349,-0.515 0.417,-0.505 0.48,-0.484L0.457,-0.348C0.405,-0.363 0.353,-0.37 0.301,-0.37C0.285,-0.37 0.262,-0.369 0.233,-0.366L0.233,-0.334C0.341,-0.334 0.414,-0.318 0.453,-0.286C0.472,-0.27 0.486,-0.253 0.494,-0.234C0.502,-0.215 0.506,-0.192 0.506,-0.165C0.506,-0.137 0.503,-0.113 0.497,-0.092C0.49,-0.071 0.481,-0.054 0.468,-0.041C0.455,-0.028 0.441,-0.018 0.427,-0.01C0.413,-0.002 0.395,0.004 0.372,0.007C0.337,0.012 0.296,0.015 0.249,0.015C0.166,0.015 0.092,0.005 0.025,-0.014L0.05,-0.156C0.106,-0.139 0.167,-0.13 0.232,-0.13C0.262,-0.13 0.289,-0.131 0.314,-0.134L0.314,-0.166C0.207,-0.166 0.134,-0.18 0.094,-0.208C0.053,-0.236 0.033,-0.283 0.033,-0.348C0.033,-0.413 0.054,-0.457 0.097,-0.48Z" style="fill:rgb(188,223,253);fill-rule:nonzero;"/>
        </g>
        <g transform="matrix(77.018,0,0,77.018,318.987,185.448)">
            <path d="M0.245,-0.17L0.245,-0.135C0.265,-0.133 0.285,-0.132 0.305,-0.132C0.367,-0.132 0.43,-0.142 0.493,-0.162L0.517,-0.015C0.442,0.005 0.368,0.015 0.295,0.015C0.202,0.015 0.134,-0.007 0.093,-0.051C0.051,-0.094 0.03,-0.161 0.03,-0.25C0.03,-0.339 0.051,-0.406 0.093,-0.45C0.134,-0.493 0.202,-0.515 0.295,-0.515C0.388,-0.515 0.452,-0.502 0.487,-0.477C0.522,-0.452 0.54,-0.404 0.54,-0.335C0.54,-0.276 0.519,-0.234 0.477,-0.209C0.434,-0.183 0.357,-0.17 0.245,-0.17ZM0.245,-0.327L0.245,-0.286L0.286,-0.286C0.31,-0.286 0.328,-0.289 0.339,-0.294C0.349,-0.299 0.355,-0.31 0.355,-0.328L0.355,-0.369L0.314,-0.369C0.29,-0.369 0.273,-0.367 0.262,-0.362C0.251,-0.357 0.245,-0.345 0.245,-0.327Z" style="fill:rgb(188,223,253);fill-rule:nonzero;"/>
        </g>
        <g transform="matrix(77.018,0,0,77.018,362.502,185.448)">
            <path d="M0.023,0.135L0.049,-0.014C0.106,0.005 0.172,0.015 0.248,0.015C0.271,0.015 0.287,0.014 0.296,0.013L0.296,-0.022C0.237,-0.022 0.198,-0.024 0.18,-0.03C0.161,-0.034 0.149,-0.04 0.144,-0.045C0.138,-0.05 0.135,-0.054 0.134,-0.057C0.133,-0.06 0.132,-0.065 0.132,-0.071L0.162,-0.157C0.114,-0.166 0.078,-0.184 0.053,-0.211C0.027,-0.238 0.015,-0.281 0.015,-0.34C0.015,-0.398 0.035,-0.442 0.074,-0.471C0.113,-0.5 0.177,-0.515 0.266,-0.515C0.298,-0.515 0.326,-0.513 0.351,-0.509L0.438,-0.576L0.543,-0.475L0.486,-0.408C0.495,-0.385 0.499,-0.355 0.499,-0.318C0.499,-0.265 0.486,-0.226 0.46,-0.201C0.433,-0.175 0.386,-0.159 0.319,-0.154L0.315,-0.13C0.387,-0.126 0.438,-0.115 0.468,-0.098C0.497,-0.08 0.512,-0.047 0.512,0C0.512,0.081 0.473,0.131 0.395,0.15C0.356,0.16 0.304,0.165 0.239,0.165C0.173,0.165 0.101,0.155 0.023,0.135ZM0.203,-0.34L0.203,-0.275L0.234,-0.275C0.258,-0.275 0.276,-0.278 0.287,-0.283C0.298,-0.288 0.303,-0.299 0.303,-0.317L0.303,-0.382L0.272,-0.382C0.248,-0.382 0.231,-0.38 0.22,-0.375C0.209,-0.37 0.203,-0.358 0.203,-0.34Z" style="fill:rgb(188,223,253);fill-rule:nonzero;"/>
        </g>
        <g transform="matrix(77.018,0,0,77.018,403.784,185.448)">
            <path d="M0.24,-0.5L0.24,-0.131L0.271,-0.131C0.295,-0.131 0.313,-0.134 0.324,-0.139C0.335,-0.143 0.34,-0.155 0.34,-0.173L0.34,-0.5L0.54,-0.5L0.54,0L0.44,0L0.382,-0.057C0.342,-0.009 0.285,0.015 0.211,0.015C0.152,0.015 0.108,0.002 0.081,-0.023C0.054,-0.048 0.04,-0.091 0.04,-0.15L0.04,-0.5L0.24,-0.5Z" style="fill:rgb(188,223,253);fill-rule:nonzero;"/>
        </g>
        <g transform="matrix(77.018,0,0,77.018,449.224,185.448)">
            <path d="M0.05,0L0.05,-0.475L0.25,-0.5L0.25,0L0.05,0ZM0.061,-0.532C0.046,-0.543 0.039,-0.564 0.039,-0.594C0.039,-0.624 0.047,-0.645 0.062,-0.657C0.077,-0.669 0.106,-0.675 0.151,-0.675C0.195,-0.675 0.225,-0.669 0.24,-0.657C0.255,-0.645 0.262,-0.624 0.262,-0.594C0.262,-0.564 0.255,-0.543 0.24,-0.532C0.225,-0.521 0.195,-0.515 0.151,-0.515C0.106,-0.515 0.076,-0.521 0.061,-0.532Z" style="fill:rgb(188,223,253);fill-rule:nonzero;"/>
        </g>
        <g transform="matrix(77.018,0,0,77.018,472.33,185.448)">
            <path d="M0.15,-0.5L0.2,-0.45C0.262,-0.493 0.329,-0.515 0.4,-0.515C0.447,-0.515 0.483,-0.505 0.51,-0.485C0.537,-0.464 0.55,-0.436 0.55,-0.4L0.55,0L0.35,0L0.35,-0.35L0.319,-0.35C0.296,-0.35 0.279,-0.347 0.268,-0.343C0.256,-0.338 0.25,-0.327 0.25,-0.312L0.25,0L0.05,0L0.05,-0.5L0.15,-0.5Z" style="fill:rgb(188,223,253);fill-rule:nonzero;"/>
        </g>
        <g transform="matrix(77.018,0,0,77.018,518.155,185.448)">
            <path d="M0.092,-0.05C0.051,-0.094 0.03,-0.161 0.03,-0.25C0.03,-0.339 0.051,-0.406 0.093,-0.45C0.134,-0.493 0.202,-0.515 0.295,-0.515C0.388,-0.515 0.456,-0.493 0.498,-0.45C0.539,-0.406 0.56,-0.339 0.56,-0.25C0.56,-0.161 0.539,-0.094 0.498,-0.051C0.456,-0.007 0.388,0.015 0.295,0.015C0.202,0.015 0.134,-0.007 0.092,-0.05ZM0.245,-0.327L0.245,-0.131L0.276,-0.131C0.3,-0.131 0.318,-0.134 0.329,-0.139C0.339,-0.143 0.345,-0.155 0.345,-0.173L0.345,-0.369L0.314,-0.369C0.29,-0.369 0.273,-0.367 0.262,-0.362C0.251,-0.357 0.245,-0.345 0.245,-0.327Z" style="fill:rgb(188,223,253);fill-rule:nonzero;"/>
        </g>
        <g transform="matrix(77.018,0,0,77.018,563.596,185.448)">
            <path d="M0.097,-0.48C0.14,-0.503 0.199,-0.515 0.274,-0.515C0.349,-0.515 0.417,-0.505 0.48,-0.484L0.457,-0.348C0.405,-0.363 0.353,-0.37 0.301,-0.37C0.285,-0.37 0.262,-0.369 0.233,-0.366L0.233,-0.334C0.341,-0.334 0.414,-0.318 0.453,-0.286C0.472,-0.27 0.486,-0.253 0.494,-0.234C0.502,-0.215 0.506,-0.192 0.506,-0.165C0.506,-0.137 0.503,-0.113 0.497,-0.092C0.49,-0.071 0.481,-0.054 0.468,-0.041C0.455,-0.028 0.441,-0.018 0.427,-0.01C0.413,-0.002 0.395,0.004 0.372,0.007C0.337,0.012 0.296,0.015 0.249,0.015C0.166,0.015 0.092,0.005 0.025,-0.014L0.05,-0.156C0.106,-0.139 0.167,-0.13 0.232,-0.13C0.262,-0.13 0.289,-0.131 0.314,-0.134L0.314,-0.166C0.207,-0.166 0.134,-0.18 0.094,-0.208C0.053,-0.236 0.033,-0.283 0.033,-0.348C0.033,-0.413 0.054,-0.457 0.097,-0.48Z" style="fill:rgb(188,223,253);fill-rule:nonzero;"/>
        </g>
        <g transform="matrix(77.018,0,0,77.018,615.66,185.448)">
            <path d="M0.245,-0.17L0.245,-0.135C0.265,-0.133 0.285,-0.132 0.305,-0.132C0.367,-0.132 0.43,-0.142 0.493,-0.162L0.517,-0.015C0.442,0.005 0.368,0.015 0.295,0.015C0.202,0.015 0.134,-0.007 0.093,-0.051C0.051,-0.094 0.03,-0.161 0.03,-0.25C0.03,-0.339 0.051,-0.406 0.093,-0.45C0.134,-0.493 0.202,-0.515 0.295,-0.515C0.388,-0.515 0.452,-0.502 0.487,-0.477C0.522,-0.452 0.54,-0.404 0.54,-0.335C0.54,-0.276 0.519,-0.234 0.477,-0.209C0.434,-0.183 0.357,-0.17 0.245,-0.17ZM0.245,-0.327L0.245,-0.286L0.286,-0.286C0.31,-0.286 0.328,-0.289 0.339,-0.294C0.349,-0.299 0.355,-0.31 0.355,-0.328L0.355,-0.369L0.314,-0.369C0.29,-0.369 0.273,-0.367 0.262,-0.362C0.251,-0.357 0.245,-0.345 0.245,-0.327Z" style="fill:rgb(188,223,253);fill-rule:nonzero;"/>
        </g>
        <g transform="matrix(77.018,0,0,77.018,659.175,185.448)">
            <path d="M0.15,-0.5L0.2,-0.45C0.262,-0.493 0.329,-0.515 0.4,-0.515C0.447,-0.515 0.483,-0.505 0.51,-0.485C0.537,-0.464 0.55,-0.436 0.55,-0.4L0.55,0L0.35,0L0.35,-0.35L0.319,-0.35C0.296,-0.35 0.279,-0.347 0.268,-0.343C0.256,-0.338 0.25,-0.327 0.25,-0.312L0.25,0L0.05,0L0.05,-0.5L0.15,-0.5Z" style="fill:rgb(188,223,253);fill-rule:nonzero;"/>
        </g>
        <g transform="matrix(120,0,0,120,278.475,305.448)">
            <path d="M0.28,-0.542L0.28,-0.5L0.34,-0.5L0.34,-0.37L0.28,-0.37L0.28,0L0.08,0L0.08,-0.37L0.03,-0.37L0.03,-0.5L0.08,-0.5L0.087,-0.56C0.096,-0.637 0.155,-0.675 0.263,-0.675C0.291,-0.675 0.328,-0.672 0.373,-0.665L0.362,-0.534L0.28,-0.542Z" style="fill:rgb(24,114,217);fill-rule:nonzero;"/>
        </g>
        <g transform="matrix(120,0,0,120,321.435,305.448)">
            <path d="M0.287,-0.515C0.447,-0.515 0.527,-0.46 0.527,-0.35L0.527,0L0.427,0L0.37,-0.057C0.351,-0.034 0.324,-0.017 0.291,-0.004C0.258,0.009 0.226,0.015 0.197,0.015C0.167,0.015 0.143,0.013 0.125,0.008C0.107,0.003 0.089,-0.005 0.072,-0.016C0.034,-0.04 0.015,-0.085 0.015,-0.15C0.015,-0.27 0.106,-0.33 0.287,-0.33L0.327,-0.33L0.327,-0.366C0.306,-0.367 0.288,-0.368 0.274,-0.368C0.199,-0.368 0.134,-0.359 0.08,-0.341L0.056,-0.484C0.123,-0.505 0.2,-0.515 0.287,-0.515ZM0.217,-0.172L0.217,-0.131L0.258,-0.131C0.287,-0.131 0.306,-0.134 0.315,-0.141C0.323,-0.148 0.327,-0.156 0.327,-0.167L0.327,-0.214L0.286,-0.214C0.262,-0.214 0.245,-0.212 0.234,-0.207C0.223,-0.202 0.217,-0.19 0.217,-0.172Z" style="fill:rgb(24,114,217);fill-rule:nonzero;"/>
        </g>
        <g transform="matrix(120,0,0,120,389.475,305.448)">
            <path d="M0.417,-0.15L0.429,-0.006C0.394,0.008 0.35,0.015 0.295,0.015C0.202,0.015 0.134,-0.007 0.093,-0.051C0.051,-0.094 0.03,-0.161 0.03,-0.25C0.03,-0.339 0.051,-0.406 0.093,-0.45C0.134,-0.493 0.202,-0.515 0.295,-0.515C0.353,-0.515 0.398,-0.508 0.429,-0.494L0.405,-0.358C0.37,-0.365 0.342,-0.369 0.321,-0.369C0.27,-0.369 0.245,-0.351 0.245,-0.316L0.245,-0.137C0.264,-0.133 0.289,-0.131 0.32,-0.131C0.35,-0.131 0.382,-0.137 0.417,-0.15Z" style="fill:rgb(24,114,217);fill-rule:nonzero;"/>
        </g>
        <g transform="matrix(120,0,0,120,444.555,305.448)">
            <path d="M0.245,-0.17L0.245,-0.135C0.265,-0.133 0.285,-0.132 0.305,-0.132C0.367,-0.132 0.43,-0.142 0.493,-0.162L0.517,-0.015C0.442,0.005 0.368,0.015 0.295,0.015C0.202,0.015 0.134,-0.007 0.093,-0.051C0.051,-0.094 0.03,-0.161 0.03,-0.25C0.03,-0.339 0.051,-0.406 0.093,-0.45C0.134,-0.493 0.202,-0.515 0.295,-0.515C0.388,-0.515 0.452,-0.502 0.487,-0.477C0.522,-0.452 0.54,-0.404 0.54,-0.335C0.54,-0.276 0.519,-0.234 0.477,-0.209C0.434,-0.183 0.357,-0.17 0.245,-0.17ZM0.245,-0.327L0.245,-0.286L0.286,-0.286C0.31,-0.286 0.328,-0.289 0.339,-0.294C0.349,-0.299 0.355,-0.31 0.355,-0.328L0.355,-0.369L0.314,-0.369C0.29,-0.369 0.273,-0.367 0.262,-0.362C0.251,-0.357 0.245,-0.345 0.245,-0.327Z" style="fill:rgb(24,114,217);fill-rule:nonzero;"/>
        </g>
        <g transform="matrix(120,0,0,120,512.355,305.448)">
            <path d="M0.05,-0.025L0.05,-0.65L0.25,-0.665L0.25,-0.499C0.275,-0.51 0.309,-0.515 0.35,-0.515C0.391,-0.515 0.426,-0.507 0.455,-0.492C0.484,-0.477 0.507,-0.456 0.522,-0.429C0.551,-0.379 0.565,-0.319 0.565,-0.25C0.565,-0.156 0.543,-0.088 0.5,-0.047C0.457,-0.006 0.391,0.015 0.303,0.015C0.215,0.015 0.131,0.002 0.05,-0.025ZM0.25,-0.332L0.25,-0.131L0.281,-0.131C0.305,-0.131 0.323,-0.134 0.334,-0.139C0.345,-0.143 0.35,-0.155 0.35,-0.173L0.35,-0.369L0.319,-0.369C0.304,-0.369 0.293,-0.368 0.284,-0.367C0.275,-0.366 0.268,-0.362 0.261,-0.357C0.254,-0.351 0.251,-0.343 0.25,-0.332Z" style="fill:rgb(24,114,217);fill-rule:nonzero;"/>
        </g>
        <g transform="matrix(120,0,0,120,583.755,305.448)">
            <path d="M0.092,-0.05C0.051,-0.094 0.03,-0.161 0.03,-0.25C0.03,-0.339 0.051,-0.406 0.093,-0.45C0.134,-0.493 0.202,-0.515 0.295,-0.515C0.388,-0.515 0.456,-0.493 0.498,-0.45C0.539,-0.406 0.56,-0.339 0.56,-0.25C0.56,-0.161 0.539,-0.094 0.498,-0.051C0.456,-0.007 0.388,0.015 0.295,0.015C0.202,0.015 0.134,-0.007 0.092,-0.05ZM0.245,-0.327L0.245,-0.131L0.276,-0.131C0.3,-0.131 0.318,-0.134 0.329,-0.139C0.339,-0.143 0.345,-0.155 0.345,-0.173L0.345,-0.369L0.314,-0.369C0.29,-0.369 0.273,-0.367 0.262,-0.362C0.251,-0.357 0.245,-0.345 0.245,-0.327Z" style="fill:rgb(24,114,217);fill-rule:nonzero;"/>
        </g>
        <g transform="matrix(120,0,0,120,654.555,305.448)">
            <path d="M0.092,-0.05C0.051,-0.094 0.03,-0.161 0.03,-0.25C0.03,-0.339 0.051,-0.406 0.093,-0.45C0.134,-0.493 0.202,-0.515 0.295,-0.515C0.388,-0.515 0.456,-0.493 0.498,-0.45C0.539,-0.406 0.56,-0.339 0.56,-0.25C0.56,-0.161 0.539,-0.094 0.498,-0.051C0.456,-0.007 0.388,0.015 0.295,0.015C0.202,0.015 0.134,-0.007 0.092,-0.05ZM0.245,-0.327L0.245,-0.131L0.276,-0.131C0.3,-0.131 0.318,-0.134 0.329,-0.139C0.339,-0.143 0.345,-0.155 0.345,-0.173L0.345,-0.369L0.314,-0.369C0.29,-0.369 0.273,-0.367 0.262,-0.362C0.251,-0.357 0.245,-0.345 0.245,-0.327Z" style="fill:rgb(24,114,217);fill-rule:nonzero;"/>
        </g>
        <g transform="matrix(120,0,0,120,725.355,305.448)">
            <path d="M0.334,0L0.257,-0.198L0.25,-0.198L0.25,0L0.05,0L0.05,-0.65L0.25,-0.665L0.25,-0.335L0.257,-0.335L0.329,-0.5L0.545,-0.5L0.429,-0.262L0.55,0L0.334,0Z" style="fill:rgb(24,114,217);fill-rule:nonzero;"/>
        </g>
    </g>
    <g transform="matrix(0.380894,0,0,0.380894,142.234,138.467)">
        <g transform="matrix(1,0,0,1,-256,-256)">
            <g id="_x35_8-like">
                <g>
                    <g>
                        <path d="M17.397,241.049L17.397,450.387C17.397,458.64 24.077,465.339 32.313,465.339L166.526,465.339L166.526,226.093L32.313,226.093C24.077,226.093 17.397,232.794 17.397,241.049Z" style="fill:rgb(24,114,217);fill-rule:nonzero;"/>
                        <path d="M434.949,196.188L315.648,196.188L315.648,106.469C315.648,73.482 288.896,46.662 256.002,46.662L211.258,46.662C203.031,46.662 196.352,53.359 196.352,61.61L196.352,132.4L138.668,233.633C137.355,235.9 136.699,238.446 136.699,241.049L136.699,450.387C136.699,458.64 143.379,465.339 151.609,465.339L390.957,465.339C414.523,465.339 435.936,451.375 445.449,429.813L493.287,321.88C494.154,319.971 494.603,317.903 494.603,315.813L494.603,256C494.604,223.01 467.848,196.188 434.949,196.188Z" style="fill:rgb(188,223,253);fill-rule:nonzero;"/>
                    </g>
                </g>
            </g>
        </g>
    </g>
    <defs>
        <radialGradient id="_Radial1" cx="0" cy="0" r="1" gradientUnits="userSpaceOnUse" gradientTransform="matrix(269.678,0,0,269.678,10.2027,150.704)"><stop offset="0" style="stop-color:rgb(220,0,255);stop-opacity:1"/><stop offset="1" style="stop-color:rgb(117,0,122);stop-opacity:1"/></radialGradient>
    </defs>
</svg>
